<svg xmlns="http://www.w3.org/2000/svg" viewBox="0 0 64 80" x="0px" y="0px"><title>bar table</title><g data-name="Layer 14"><path d="M20,27.72a2,2,0,0,0,1-2.06A2.07,2.07,0,0,0,18.89,24H9.27L8.4,19.19A2.67,2.67,0,0,0,5.77,17,1.75,1.75,0,0,0,4,18.77a1.5,1.5,0,0,0,0,.37l1.52,6.91A2.48,2.48,0,0,0,7,27.79l-4,20V55H5V48L6.2,42H18V55h2V42h3V40H20ZM6.6,40,8.82,29H18V40Z"/><path d="M57,27.79a2.5,2.5,0,0,0,1.46-1.74l1.52-6.91a2.21,2.21,0,0,0,0-.37A1.77,1.77,0,0,0,58.21,17a2.66,2.66,0,0,0-2.62,2.19L54.71,24H45.09A2.08,2.08,0,0,0,43,25.66a2,2,0,0,0,1,2.06V40H41v2h3V55h2V42H57.78L59,48l0,7h2l0-7.06ZM46,40V29h9.18l2.21,11Z"/><polygon points="33 20 46 20 46 16 18 16 18 20 31 20 31 53 24 53 24 55 31 55 33 55 40 55 40 53 33 53 33 20"/></g><text x="0" y="79" fill="#000000" font-size="5px" font-weight="bold" font-family="'Helvetica Neue', Helvetica, Arial-Unicode, Arial, Sans-serif">Created by tezar tantular</text><text x="0" y="84" fill="#000000" font-size="5px" font-weight="bold" font-family="'Helvetica Neue', Helvetica, Arial-Unicode, Arial, Sans-serif">from the Noun Project</text></svg>